<svg id="SvgjsSvg1016" width="288" height="288" xmlns="http://www.w3.org/2000/svg" version="1.1" xmlns:xlink="http://www.w3.org/1999/xlink" xmlns:svgjs="http://svgjs.com/svgjs"><defs id="SvgjsDefs1017"></defs><g id="SvgjsG1018"><svg xmlns="http://www.w3.org/2000/svg" data-name="Layer 1" viewBox="0 0 512 512" width="288" height="288"><path fill="#66c1ff" d="M241.846 8.844 133.493 32.195a17.366 17.366 0 0 0-13.744 16.953v186.475a74.638 74.638 0 0 0-24.586-4.133c-37.844 0-68.524 27.789-68.524 62.068s30.68 62.068 68.525 62.068c26.008 0 52.021-14.137 62.833-38.24 9.397-20.947 5.69-46.128 5.69-68.594V99.723l149.22-34.658c-.513-36.868-34.84-64.026-71.06-56.22Z" class="color66c1ff svgShape"></path><path fill="#66c1ff" d="M241.793 180.676V380.32a3.069 3.069 0 0 1-3.941 2.926 74.872 74.872 0 0 0-20.645-2.882c-37.845 0-68.524 27.789-68.524 62.068s30.679 62.068 68.524 62.068c26.008 0 52.022-14.137 62.834-38.24 9.396-20.947 5.69-46.129 5.69-68.594V235.287a5.093 5.093 0 0 1 3.95-4.954l145.27-33.74a5.107 5.107 0 0 1 6.276 4.954v163.51a3.069 3.069 0 0 1-3.941 2.927 74.872 74.872 0 0 0-20.645-2.883c-37.845 0-68.524 27.789-68.524 62.068 0 34.28 30.679 62.068 68.523 62.068 22.902 0 45.674-11.856 58.518-31.253 12.446-18.796 10.013-38.54 10.006-59.777q-.017-56.814 0-113.627V133.16a15.32 15.32 0 0 0-18.589-14.917l-211.038 45.48a17.366 17.366 0 0 0-13.744 16.953Z" class="color66c1ff svgShape"></path><path fill="#4eb7ff" d="M411.227 201.547a5.107 5.107 0 0 0-6.276-4.954l-145.27 33.74a5.093 5.093 0 0 0-3.95 4.954v162.379c0 22.465 3.706 47.647-5.69 68.595-8.737 19.476-27.402 32.44-47.967 36.701a75.532 75.532 0 0 0 15.133 1.538c26.008 0 52.022-14.137 62.834-38.24 9.396-20.947 5.69-46.129 5.69-68.594V235.287a5.093 5.093 0 0 1 3.95-4.954l121.546-28.23zm-199.465 179.03a75.1 75.1 0 0 0-9.559 1.297c1.913.39 3.8.842 5.649 1.372a3.059 3.059 0 0 0 3.91-2.67zm273.402 17.63q-.017-56.814 0-113.627V133.16a15.32 15.32 0 0 0-18.589-14.917l-16.532 3.563a15.116 15.116 0 0 1 5.121 11.354V398.207c.007 21.236 2.44 40.981-10.006 59.777a71.12 71.12 0 0 1-43.917 29.66 75.514 75.514 0 0 0 15.4 1.593c22.9 0 45.673-11.856 58.517-31.253 12.446-18.796 10.013-38.54 10.006-59.777zm-73.968-32.893a75.101 75.101 0 0 0-9.559 1.298c1.913.389 3.8.842 5.649 1.372a3.059 3.059 0 0 0 3.91-2.67z" class="color4eb7ff svgShape"></path></svg></g></svg>